<svg version="1.1" id="Layer_1" xmlns="http://www.w3.org/2000/svg" xmlns:xlink="http://www.w3.org/1999/xlink" x="0px" y="0px"
	 width="100%" viewBox="0 0 1024 281" enable-background="new 0 0 1024 281" xml:space="preserve">
<path fill="#090909" opacity="1.000000" stroke="none" 
	d="
M662.000000,282.000000 
	C441.333374,282.000000 221.166748,282.000000 1.000089,282.000000 
	C1.000059,188.333389 1.000059,94.666779 1.000030,1.000126 
	C342.333221,1.000084 683.666443,1.000084 1024.999756,1.000042 
	C1024.999756,94.666534 1024.999756,188.333069 1024.999878,281.999817 
	C904.166687,282.000000 783.333313,282.000000 662.000000,282.000000 
M723.679688,125.515808 
	C723.137268,125.344620 722.594910,125.173431 721.579102,124.523750 
	C721.020203,123.094635 720.461304,121.665527 720.197449,119.535110 
	C723.144287,113.480469 723.132935,113.491531 716.454346,112.830933 
	C715.705200,112.756828 714.998291,112.187309 714.286255,111.819443 
	C711.187927,110.218605 708.094910,108.607422 705.566650,106.929077 
	C705.888184,106.625023 706.209717,106.320961 706.531311,106.016930 
	C706.322510,105.836151 706.113770,105.655373 705.904968,105.474586 
	C705.603333,105.983055 705.301636,106.491524 704.299805,107.006302 
	C703.517395,107.382515 702.734985,107.758736 701.290466,108.142685 
	C700.860107,108.049789 700.429688,107.956894 699.978760,107.127960 
	C699.078857,106.670242 698.167542,105.801010 697.281067,105.825768 
	C693.364807,105.935143 689.348816,107.007133 685.565552,106.433556 
	C676.727051,105.093582 676.772827,104.791656 674.912903,113.824738 
	C674.341187,114.246193 673.769531,114.667648 672.507690,114.789131 
	C669.638489,113.062302 666.769287,111.335472 664.199463,109.788841 
	C663.877808,108.370178 663.645142,105.491043 663.148010,105.444641 
	C659.174011,105.073608 655.137451,105.039185 651.144348,105.289474 
	C646.063660,105.607933 640.429321,107.942314 636.074707,106.423248 
	C629.732178,104.210709 627.162781,105.427498 625.487610,111.407280 
	C625.258911,112.223541 623.084229,112.494629 621.111938,113.305313 
	C622.118896,110.491470 622.732361,108.777138 623.345825,107.062790 
	C621.749939,107.668823 620.183533,108.379501 618.546753,108.840416 
	C617.611755,109.103729 616.562378,108.990601 615.564270,108.994354 
	C611.897705,109.008156 608.230408,108.960274 604.564453,109.011017 
	C600.811829,109.062943 596.589050,107.830902 594.248901,114.339462 
	C593.681274,111.125694 593.427124,109.686852 593.222961,108.531036 
	C584.071350,108.531036 575.142090,108.531036 566.212830,108.531036 
	C566.203308,108.203735 566.193787,107.876442 566.184265,107.549141 
	C572.256348,107.549141 578.328491,107.549141 584.400635,107.549141 
	C584.384766,107.079971 584.368896,106.610809 584.353027,106.141640 
	C577.801025,105.764069 571.251526,105.328743 564.695618,105.039810 
	C562.357544,104.936768 561.156128,105.635735 561.582092,108.643318 
	C561.990723,111.528183 561.170410,114.587128 560.848816,118.009315 
	C558.726013,116.259605 557.370605,115.142487 556.015259,114.025368 
	C555.514099,114.199631 555.012878,114.373894 554.511658,114.548157 
	C556.131653,122.668671 549.183044,130.176758 553.800903,138.538315 
	C553.979126,138.861069 553.659851,139.496002 553.501282,139.961227 
	C552.504456,142.885986 551.487366,145.803848 550.348389,149.095703 
	C547.510010,146.962601 543.603027,147.012009 544.482300,141.948181 
	C544.975830,139.105545 541.001831,138.410156 537.292908,141.670181 
	C537.767334,139.194809 537.525024,137.057541 538.447449,136.249008 
	C541.994995,133.139420 542.256104,129.771927 538.128662,127.632004 
	C534.729370,125.869591 532.229309,123.918594 531.697388,119.951767 
	C531.646301,119.570435 530.658081,119.314751 529.756653,118.309113 
	C528.963989,115.839722 528.171326,113.370331 527.370483,110.875412 
	C518.228149,110.875412 509.237610,110.875412 499.888336,110.875412 
	C510.557129,138.082001 521.122070,164.811646 531.420044,191.643784 
	C532.353088,194.074875 532.333496,197.442245 531.445190,199.901093 
	C527.940186,209.602478 523.911987,219.114792 520.052673,228.760284 
	C528.940063,228.760284 537.375244,228.760284 545.626221,228.760284 
	C548.794495,220.341919 551.843994,212.172729 554.941650,204.021805 
	C562.293579,184.676468 569.668274,165.339813 577.729248,145.876877 
	C578.898743,143.818008 580.068237,141.759140 581.762573,138.776276 
	C581.762573,141.225739 581.762573,142.500534 581.762573,143.775345 
	C582.171997,143.889252 582.581482,144.003159 582.990906,144.117081 
	C583.984070,141.394684 585.203613,138.729355 585.908081,135.934189 
	C586.644104,133.013657 585.194580,131.603638 582.056335,131.423828 
	C582.389954,130.949051 582.723511,130.474274 583.761292,129.867828 
	C585.888184,124.767281 589.276794,121.379875 596.630005,121.448814 
	C595.694946,124.700905 594.563538,127.578522 594.114136,130.558975 
	C593.798340,132.653549 594.292786,134.908218 594.656372,137.052246 
	C594.856995,138.235504 596.050293,139.409210 595.904724,140.464203 
	C595.347656,144.500595 598.331787,149.593124 592.613892,152.258118 
	C592.176025,152.462173 592.143250,153.768372 592.113098,154.569473 
	C592.028687,156.816528 591.948181,159.071350 592.042114,161.315750 
	C592.194397,164.955658 590.795227,169.165741 595.519043,171.063492 
	C591.201477,174.718430 592.380981,178.048965 595.639465,181.280792 
	C594.714355,182.454651 593.848267,183.553711 592.921631,184.729553 
	C594.128845,185.738998 595.070007,186.526001 596.184631,187.458008 
	C594.951599,188.620453 593.967896,189.547775 592.984253,190.475113 
	C593.465637,190.600525 593.947021,190.725952 594.428406,190.851364 
	C594.428406,192.794037 594.357605,194.740234 594.454285,196.678085 
	C594.515137,197.897293 594.826904,199.104004 595.026123,200.316315 
	C596.120605,200.029251 597.227661,199.782700 598.306519,199.445679 
	C599.930420,198.938431 601.534485,198.367920 603.915466,197.565231 
	C602.995117,199.962509 602.571899,201.064850 601.763367,203.170731 
	C605.059448,202.170181 608.078735,202.126572 609.651611,200.596283 
	C613.031250,197.308243 614.686829,197.126846 618.549194,200.234009 
	C619.854370,201.283966 622.332764,200.875641 624.274902,201.133743 
	C624.240234,199.458710 624.299011,197.775208 624.148621,196.110641 
	C623.934448,193.740631 622.911987,191.233444 623.414246,189.057037 
	C624.212402,185.598724 625.984314,182.365128 627.344299,179.036453 
	C626.626587,179.045715 625.908875,179.054962 625.191162,179.064224 
	C624.461121,177.273926 623.165527,175.503647 623.101257,173.689743 
	C622.854065,166.713425 622.961670,159.722702 623.037354,152.738449 
	C623.051086,151.468002 623.108887,149.790619 623.871277,149.001694 
	C628.875793,143.823303 626.665710,138.207809 625.336609,132.326477 
	C625.336609,132.326477 625.611877,132.187683 626.321411,132.567581 
	C627.040405,131.767685 627.759338,130.967789 629.157349,129.928986 
	C638.885803,126.450790 645.902588,129.795197 647.535950,139.406296 
	C647.977112,140.936707 648.418274,142.467117 649.057129,144.916962 
	C649.077332,161.837631 649.097534,178.758286 649.182678,196.519226 
	C649.324707,196.806458 649.460754,197.341660 649.609680,197.345261 
	C656.070984,197.500336 662.533386,197.631775 668.995972,197.654404 
	C669.328064,197.655563 669.663574,196.675079 670.868591,195.989349 
	C671.248352,194.560471 671.949707,193.133530 671.958252,191.702423 
	C672.046082,177.078644 671.968872,162.453812 672.076660,147.830292 
	C672.095947,145.217056 672.750793,142.608536 673.751953,139.891800 
	C673.808167,138.918716 673.864319,137.945648 673.933716,136.285507 
	C674.628113,135.192169 675.322571,134.098831 676.771973,132.979416 
	C677.515564,132.197617 678.259216,131.415817 679.494446,130.052582 
	C687.437500,127.215179 692.669617,128.416000 697.172852,135.032455 
	C698.067078,137.353180 698.961365,139.673904 700.074768,142.910858 
	C700.085938,160.505524 700.097168,178.100204 700.179626,196.533356 
	C700.614258,196.973557 701.042236,197.789764 701.484497,197.797607 
	C708.255310,197.917297 715.029114,197.997131 721.798462,197.874695 
	C722.520935,197.861618 723.219421,196.523773 723.888428,194.888931 
	C723.867676,173.949860 723.846924,153.010773 724.318481,131.834412 
	C724.545654,131.556274 724.772827,131.278137 725.611450,131.256729 
	C726.629333,130.724777 728.537292,130.156143 728.517151,129.666977 
	C728.406860,126.992195 726.936279,125.465530 723.679688,125.515808 
M115.792175,199.577774 
	C115.792175,199.577774 116.048775,199.980728 116.102249,200.669647 
	C117.973137,202.492950 119.610237,204.678574 121.761795,206.066925 
	C126.812012,209.325684 132.113144,212.194809 137.304077,215.236420 
	C151.258179,223.412766 165.160202,231.679321 179.172623,239.754425 
	C192.955154,247.697113 206.932983,255.303833 220.645645,263.363342 
	C225.384750,266.148712 229.632553,265.872162 234.069168,263.333710 
	C240.418213,259.701050 246.771301,256.070435 253.028625,252.283554 
	C261.828156,246.958145 270.438782,241.314346 279.320526,236.132919 
	C288.152252,230.980682 297.309723,226.387909 306.157684,221.262100 
	C314.969055,216.157516 323.418121,210.410797 332.350281,205.540283 
	C335.597839,203.769470 337.532867,201.854172 338.681885,197.979309 
	C338.930115,197.317566 339.178314,196.655823 340.134521,195.700394 
	C340.421753,194.632874 340.958649,193.565674 340.959991,192.497787 
	C341.003967,157.599487 341.012054,122.701080 340.934204,87.802902 
	C340.931396,86.534882 340.009613,85.268913 339.212311,83.385216 
	C339.099487,82.941414 338.986694,82.497612 338.924011,81.343727 
	C336.511505,78.725899 334.515259,75.435829 331.599701,73.630379 
	C325.556915,69.888420 318.888550,67.171631 312.728973,63.599571 
	C304.551544,58.857307 296.700653,53.553696 288.544891,48.771912 
	C282.720642,45.357113 276.579956,42.486465 270.671539,39.208866 
	C267.850494,37.643944 265.326385,35.547142 262.518829,33.953762 
	C255.884583,30.188618 249.148071,26.604160 242.480423,22.897169 
	C239.973923,21.503639 237.334091,20.233189 235.122162,18.450996 
	C230.589752,14.799145 224.973602,13.843378 220.118881,16.617943 
	C208.849319,23.058706 197.585739,29.514118 186.433090,36.153980 
	C177.386459,41.539997 168.634949,47.428783 159.517212,52.686470 
	C148.126724,59.254719 136.356583,65.170753 125.044495,71.865387 
	C121.205490,74.137360 118.259789,77.918755 114.128937,81.205948 
	C113.753426,82.388557 113.051643,83.570656 113.049767,84.753860 
	C112.992104,121.175293 112.983353,157.596878 113.081902,194.018143 
	C113.085487,195.346176 114.246002,196.671066 115.144798,198.460632 
	C115.391998,198.701508 115.639206,198.942398 115.864090,199.049210 
	C115.864090,199.049210 115.739273,199.102982 115.792175,199.577774 
M763.762024,75.018326 
	C756.062622,74.831230 748.363342,74.633667 740.662903,74.511925 
	C740.450562,74.508568 740.225342,75.319641 739.520508,75.919128 
	C739.356689,75.969307 739.192871,76.019478 738.547913,75.564903 
	C738.032104,76.669395 737.069702,77.772362 737.065918,78.878593 
	C736.980530,103.925156 736.971924,128.972198 737.078674,154.018585 
	C737.084351,155.346649 738.231873,156.669815 739.015503,158.773575 
	C739.052612,159.832275 739.089722,160.890991 738.537720,162.411621 
	C740.061890,166.595062 741.585999,170.778519 743.719666,175.268311 
	C745.992676,178.506332 747.979858,181.997406 750.585327,184.941193 
	C767.171997,203.681549 812.000427,205.583557 829.585449,180.890518 
	C833.492004,175.927444 836.773071,170.765701 834.860779,163.235306 
	C834.956909,162.488739 835.052979,161.742157 835.917847,160.785736 
	C836.278320,159.759109 836.951172,158.733170 836.953491,157.705719 
	C837.011597,131.742172 837.028381,105.778320 836.911133,79.815163 
	C836.905457,78.548920 835.616760,77.288460 834.450684,75.919357 
	C834.450684,75.919357 833.994080,75.751213 833.756470,75.002411 
	C826.159729,74.770813 818.563416,74.519310 810.965027,74.376823 
	C810.644775,74.370819 810.305481,75.378448 809.705688,76.829254 
	C809.753113,102.112831 809.826782,127.396416 809.808716,152.679947 
	C809.806824,155.319199 809.406433,157.984055 808.940735,160.592361 
	C807.343445,169.538498 801.102783,175.040802 790.687988,176.846436 
	C782.649902,178.240036 772.835632,173.948318 768.950317,166.512802 
	C768.014404,164.676941 767.078552,162.841095 765.933716,160.371826 
	C765.910645,159.932678 765.887573,159.493515 766.503113,158.492355 
	C766.664124,157.859833 766.965332,157.227478 766.966003,156.594788 
	C766.993958,131.226349 767.019104,105.857796 766.920959,80.489723 
	C766.916504,79.326149 765.772766,78.166992 764.943237,76.447968 
	C764.626770,76.222382 764.310364,75.996796 763.762024,75.018326 
M424.238190,77.003098 
	C400.365143,83.723061 387.977264,100.322037 383.093689,124.023674 
	C382.421478,124.576920 381.105499,125.317902 381.201508,125.647125 
	C381.457794,126.526031 382.320801,127.228012 383.054504,128.930542 
	C383.024628,134.899597 382.994781,140.868668 382.221924,146.493256 
	C381.960480,146.922607 381.699036,147.351959 381.437561,147.781311 
	C381.662811,147.889252 382.033600,148.138474 382.088898,148.081467 
	C382.377014,147.784592 382.584869,147.409805 383.520599,147.702850 
	C385.013000,153.422852 385.947083,159.362198 388.093445,164.825287 
	C397.928558,189.858658 423.208557,203.333817 449.352386,198.074524 
	C459.164551,196.100647 466.845520,191.046249 473.229614,182.351334 
	C473.229614,187.410126 473.229614,191.487198 473.229614,195.770477 
	C480.067413,195.770477 486.654266,195.770477 493.306702,195.770477 
	C493.306702,174.729630 493.306702,153.859787 493.306702,132.981873 
	C476.505737,132.981873 459.953278,132.981873 443.475586,132.981873 
	C443.475586,139.818222 443.475586,146.371567 443.475586,153.303558 
	C451.877899,153.303558 459.940125,153.303558 468.131439,153.303558 
	C467.875122,160.794113 464.843018,166.537903 459.353699,170.806473 
	C443.520416,183.118652 420.723297,176.479492 413.065521,157.186462 
	C408.146301,144.792908 407.682129,131.957611 411.683350,119.228226 
	C415.498840,107.089554 423.461456,98.905968 436.432831,97.051834 
	C450.831635,94.993668 461.714539,102.271027 466.676666,114.332703 
	C467.121338,115.413635 469.021393,116.508659 470.274750,116.543381 
	C477.718750,116.749603 485.171387,116.645233 493.041473,116.645233 
	C492.903503,114.969780 492.995667,113.478775 492.634827,112.106941 
	C488.496368,96.374290 479.013977,85.259346 463.914246,79.001480 
	C461.540771,78.017830 459.280396,76.761192 456.775146,75.173882 
	C456.645477,75.217339 456.515839,75.260803 456.386169,75.304268 
	C456.504639,75.419029 456.623138,75.533791 456.199860,76.287315 
	C455.134247,76.126862 454.068604,75.966415 452.981964,75.107597 
	C452.422791,74.466896 451.863617,73.826195 451.304443,73.185493 
	C450.869659,73.794846 450.434875,74.404198 449.064880,75.075287 
	C441.709930,75.362579 434.355011,75.649879 426.912292,75.326599 
	C426.316345,74.932953 425.720428,74.539314 425.124481,74.145676 
	C425.081726,75.023399 425.038940,75.901131 424.238190,77.003098 
M912.006348,189.513931 
	C912.700806,188.796494 913.445984,188.121124 914.082153,187.355270 
	C923.579529,175.921722 923.902100,151.872467 903.210938,146.251053 
	C899.719238,145.302414 896.110962,144.791336 892.574951,143.996002 
	C886.796326,142.696274 880.824829,141.863953 875.361328,139.738007 
	C873.040771,138.835037 870.370667,135.102127 870.467468,132.763275 
	C870.564209,130.424286 873.475220,127.234322 875.923706,126.135330 
	C884.415710,122.323814 892.014404,125.531311 895.886841,133.864136 
	C903.477173,133.864136 911.103760,133.864136 920.423523,133.864136 
	C917.529907,128.391342 915.837341,123.048653 912.456421,119.182396 
	C900.524902,105.538086 871.722534,103.561859 857.633972,114.969681 
	C850.209351,120.981483 846.080017,128.727814 847.363770,138.399475 
	C848.738831,148.759232 855.512329,154.604080 865.195129,157.444519 
	C867.245850,158.046097 869.317688,158.596985 871.407776,159.038956 
	C877.865540,160.404510 884.392151,161.489227 890.780823,163.118820 
	C894.282349,164.011978 896.887695,166.249237 897.045105,170.445374 
	C897.209412,174.826355 895.256897,178.304764 891.368408,179.382278 
	C887.217957,180.532379 882.553772,180.968857 878.306213,180.364639 
	C871.721558,179.427963 869.205872,174.032318 868.206177,168.398926 
	C860.535583,168.398926 853.302917,168.398926 846.094177,168.398926 
	C845.911377,178.115570 850.542175,186.434479 858.472839,192.358475 
	C870.759460,201.536362 899.434509,201.921417 912.006348,189.513931 
M607.728271,107.999069 
	C610.328491,107.884010 612.928650,107.768951 615.528870,107.653893 
	C615.498108,107.195343 615.467346,106.736786 615.436584,106.278236 
	C611.517822,106.278236 607.599060,106.278236 603.680298,106.278236 
	C603.676331,106.712784 603.672424,107.147331 603.668457,107.581879 
	C604.732544,107.720772 605.796570,107.859665 607.728271,107.999069 
z"/>
<path fill="#8148DB" opacity="1.000000" stroke="none" 
	d="
M338.083374,198.363449 
	C337.532867,201.854172 335.597839,203.769470 332.350281,205.540283 
	C323.418121,210.410797 314.969055,216.157516 306.157684,221.262100 
	C297.309723,226.387909 288.152252,230.980682 279.320526,236.132919 
	C270.438782,241.314346 261.828156,246.958145 253.028625,252.283554 
	C246.771301,256.070435 240.418213,259.701050 234.069168,263.333710 
	C229.632553,265.872162 225.384750,266.148712 220.645645,263.363342 
	C206.932983,255.303833 192.955154,247.697113 179.172623,239.754425 
	C165.160202,231.679321 151.258179,223.412766 137.304077,215.236420 
	C132.113144,212.194809 126.812012,209.325684 121.761795,206.066925 
	C119.610237,204.678574 117.973137,202.492950 116.241074,200.216125 
	C116.166359,199.542740 115.952820,199.322861 115.739273,199.102982 
	C115.739273,199.102982 115.864090,199.049210 115.902008,198.631439 
	C115.956581,160.904816 115.982704,123.595955 115.953377,86.287140 
	C115.952263,84.872581 115.414513,83.458443 115.050858,81.790115 
	C114.951881,81.360870 114.928871,81.185623 114.905869,81.010384 
	C118.259789,77.918755 121.205490,74.137360 125.044495,71.865387 
	C136.356583,65.170753 148.126724,59.254719 159.517212,52.686470 
	C168.634949,47.428783 177.386459,41.539997 186.433090,36.153980 
	C197.585739,29.514118 208.849319,23.058706 220.118881,16.617943 
	C224.973602,13.843378 230.589752,14.799145 235.122162,18.450996 
	C237.334091,20.233189 239.973923,21.503639 242.480423,22.897169 
	C249.148071,26.604160 255.884583,30.188618 262.518829,33.953762 
	C265.326385,35.547142 267.850494,37.643944 270.671539,39.208866 
	C276.579956,42.486465 282.720642,45.357113 288.544891,48.771912 
	C296.700653,53.553696 304.551544,58.857307 312.728973,63.599571 
	C318.888550,67.171631 325.556915,69.888420 331.599701,73.630379 
	C334.515259,75.435829 336.511505,78.725899 338.620667,82.001595 
	C338.217041,83.310936 338.028931,83.962418 338.029083,84.613876 
	C338.037292,122.530403 338.061066,160.446930 338.083374,198.363449 
M131.160736,192.439651 
	C131.634171,192.944534 132.107590,193.449417 133.194199,194.139542 
	C140.638565,198.606186 148.122040,203.009247 155.516647,207.556793 
	C163.436539,212.427322 171.161926,217.622803 179.177841,222.325943 
	C186.621826,226.693527 194.443787,230.415771 201.900101,234.763779 
	C208.331985,238.514374 214.446487,242.805756 220.787155,246.718933 
	C222.225937,247.606918 224.018967,247.921295 225.649490,248.498138 
	C229.416595,249.830856 231.519272,246.878281 234.230759,245.293381 
	C242.410828,240.511948 250.742355,235.989594 258.921844,231.207184 
	C274.910278,221.858978 290.890228,212.493591 306.757538,202.942337 
	C312.301605,199.605133 317.503815,195.699905 323.592255,191.686966 
	C324.060059,190.009125 324.931396,188.332336 324.935822,186.653275 
	C325.017059,155.876953 325.045380,125.100105 324.895325,94.324295 
	C324.883545,91.908356 323.474915,89.499222 322.889404,87.065849 
	C322.889404,87.065849 322.872833,87.240250 322.726807,86.691429 
	C322.428162,86.476555 322.129547,86.261673 321.356842,85.879349 
	C320.869171,85.427208 320.381531,84.975075 319.861389,84.081978 
	C319.577148,84.041100 319.292908,84.000214 318.311493,83.834633 
	C309.005646,78.241150 299.741058,72.577477 290.383606,67.071724 
	C278.335693,59.982956 266.257904,52.942287 254.104599,46.036469 
	C247.827759,42.469810 241.359787,39.239483 234.908997,35.146324 
	C233.541458,34.477890 232.173904,33.809456 230.930984,33.104252 
	C230.930984,33.104252 230.930344,33.234180 230.693634,32.499386 
	C228.468933,32.399059 226.244247,32.298733 224.042877,32.064510 
	C224.042877,32.064510 224.170792,32.110455 223.504135,32.091084 
	C223.017670,32.462296 222.531204,32.833508 222.050491,33.080162 
	C222.050491,33.080162 222.170456,33.114159 221.411072,33.045910 
	C219.287170,34.414253 217.163254,35.782597 215.041870,37.055622 
	C215.041870,37.055622 215.134293,37.079037 214.405212,37.032032 
	C213.277466,37.720547 212.149719,38.409058 210.698822,39.729961 
	C207.184235,41.619160 203.595688,43.383907 200.168579,45.420326 
	C188.785553,52.184227 177.522049,59.151176 166.086487,65.823936 
	C160.665070,68.987373 154.857391,71.485649 149.409149,74.607193 
	C144.457626,77.444145 139.755981,80.717255 134.676361,83.533287 
	C134.472763,83.770584 134.269150,84.007874 133.881668,84.714088 
	C133.570038,85.091347 133.258423,85.468613 132.509094,86.022667 
	C132.199814,86.372238 131.890533,86.721809 130.990891,87.201637 
	C130.968262,87.793892 130.945633,88.386139 131.045288,89.911423 
	C130.988251,97.283958 130.931213,104.656487 130.564972,112.196365 
	C130.669189,112.454521 130.773392,112.712677 131.034485,113.866547 
	C130.980804,116.590904 130.927124,119.315269 130.361710,122.541550 
	C130.532364,124.347786 130.703003,126.154022 131.028900,128.864838 
	C130.976837,131.921997 130.924759,134.979141 130.450928,138.318573 
	C130.592575,138.867325 130.734238,139.416077 131.030945,140.891922 
	C130.979156,145.933609 130.927383,150.975311 130.207581,156.132477 
	C130.430099,157.415909 130.652634,158.699341 131.030045,160.864487 
	C130.978973,163.248703 130.927887,165.632904 130.125031,168.189728 
	C128.805939,171.253860 127.537094,174.313721 131.028564,177.865082 
	C130.979004,180.254822 130.929459,182.644547 130.450897,185.315170 
	C130.597595,185.866699 130.744278,186.418213 131.039322,187.650864 
	C130.991867,188.110596 130.944412,188.570328 130.400177,189.426163 
	C130.704315,190.248779 131.008453,191.071396 131.126816,191.846283 
	C131.126816,191.846283 131.223862,191.680847 131.160736,192.439651 
z"/>
<path fill="#FCFCFC" opacity="1.000000" stroke="none" 
	d="
M383.816101,123.997223 
	C387.977264,100.322037 400.365143,83.723061 424.898621,76.913589 
	C426.039368,76.528442 426.519714,76.232803 427.000061,75.937164 
	C434.355011,75.649879 441.709930,75.362579 449.797241,75.223495 
	C451.354034,75.516464 452.178528,75.661209 453.002991,75.805954 
	C454.068604,75.966415 455.134247,76.126862 456.514099,75.936722 
	C456.828308,75.586136 456.967743,75.630775 456.967743,75.630783 
	C459.280396,76.761192 461.540771,78.017830 463.914246,79.001480 
	C479.013977,85.259346 488.496368,96.374290 492.634827,112.106941 
	C492.995667,113.478775 492.903503,114.969780 493.041473,116.645233 
	C485.171387,116.645233 477.718750,116.749603 470.274750,116.543381 
	C469.021393,116.508659 467.121338,115.413635 466.676666,114.332703 
	C461.714539,102.271027 450.831635,94.993668 436.432831,97.051834 
	C423.461456,98.905968 415.498840,107.089554 411.683350,119.228226 
	C407.682129,131.957611 408.146301,144.792908 413.065521,157.186462 
	C420.723297,176.479492 443.520416,183.118652 459.353699,170.806473 
	C464.843018,166.537903 467.875122,160.794113 468.131439,153.303558 
	C459.940125,153.303558 451.877899,153.303558 443.475586,153.303558 
	C443.475586,146.371567 443.475586,139.818222 443.475586,132.981873 
	C459.953278,132.981873 476.505737,132.981873 493.306702,132.981873 
	C493.306702,153.859787 493.306702,174.729630 493.306702,195.770477 
	C486.654266,195.770477 480.067413,195.770477 473.229614,195.770477 
	C473.229614,191.487198 473.229614,187.410126 473.229614,182.351334 
	C466.845520,191.046249 459.164551,196.100647 449.352386,198.074524 
	C423.208557,203.333817 397.928558,189.858658 388.093445,164.825287 
	C385.947083,159.362198 385.013000,153.422852 383.171173,147.378021 
	C382.821747,147.053207 382.964905,146.837723 382.964905,146.837723 
	C382.994781,140.868668 383.024628,134.899597 383.142853,128.149353 
	C383.426178,126.244507 383.621155,125.120865 383.816101,123.997223 
z"/>
<path fill="#FCFCFC" opacity="1.000000" stroke="none" 
	d="
M673.112183,139.997833 
	C672.750793,142.608536 672.095947,145.217056 672.076660,147.830292 
	C671.968872,162.453812 672.046082,177.078644 671.958252,191.702423 
	C671.949707,193.133530 671.248352,194.560471 669.969543,195.998184 
	C662.419556,195.897659 655.768677,195.788315 649.117737,195.678955 
	C649.097534,178.758286 649.077332,161.837631 649.024170,144.080994 
	C648.695679,141.816635 648.400208,140.388229 648.104675,138.959839 
	C645.902588,129.795197 638.885803,126.450790 628.547729,130.176178 
	C627.162659,131.011490 626.387268,131.599579 625.611877,132.187683 
	C625.611877,132.187683 625.336609,132.326477 625.003540,132.671692 
	C623.443665,137.387024 621.308655,141.726334 621.159180,146.132950 
	C620.696899,159.766739 620.990662,173.426147 620.990967,187.075623 
	C620.991028,190.001663 620.990967,192.927704 620.990967,195.679962 
	C612.961548,195.679962 605.561829,195.679962 598.210938,195.679962 
	C598.210938,167.105682 598.210938,138.847076 598.210938,110.604820 
	C605.188232,110.604820 611.962524,110.604820 619.283997,110.604820 
	C619.283997,114.017487 619.283997,117.311172 619.283997,121.459511 
	C630.575195,102.920860 661.690125,103.679077 668.934692,121.224808 
	C670.431519,119.070457 671.814636,117.079773 673.197754,115.089096 
	C673.769531,114.667648 674.341187,114.246193 675.357788,113.453842 
	C682.961548,107.139969 691.600342,108.057724 699.999329,107.864006 
	C700.429688,107.956894 700.860107,108.049789 701.862183,108.416473 
	C710.010681,109.885315 715.477417,114.272797 719.902405,120.236420 
	C720.461304,121.665527 721.020203,123.094635 721.796875,125.062996 
	C722.249817,126.108337 722.485046,126.614426 722.763550,127.440941 
	C722.924866,128.175827 723.042786,128.590286 723.094971,129.328232 
	C723.294861,130.458374 723.560547,131.265045 723.826172,132.071716 
	C723.846924,153.010773 723.867676,173.949860 723.450134,195.421478 
	C715.377319,195.867645 707.742859,195.781265 700.108337,195.694870 
	C700.097168,178.100204 700.085938,160.505524 700.030090,142.069611 
	C699.123047,138.872803 698.260620,136.517258 697.398254,134.161713 
	C692.669617,128.416000 687.437500,127.215179 678.942749,130.467041 
	C677.599670,131.589478 676.808350,132.297485 676.017029,133.005493 
	C675.322571,134.098831 674.628113,135.192169 673.647461,136.819382 
	C673.278137,138.234787 673.195129,139.116302 673.112183,139.997833 
z"/>
<path fill="#FEFEFE" opacity="1.000000" stroke="none" 
	d="
M765.864502,159.054367 
	C765.887573,159.493515 765.910645,159.932678 765.984741,161.046082 
	C766.986816,163.584839 767.937866,165.449356 768.888977,167.313873 
	C772.835632,173.948318 782.649902,178.240036 790.687988,176.846436 
	C801.102783,175.040802 807.343445,169.538498 808.940735,160.592361 
	C809.406433,157.984055 809.806824,155.319199 809.808716,152.679947 
	C809.826782,127.396416 809.753113,102.112831 810.310242,76.392395 
	C818.607910,75.887428 826.300964,75.819321 833.994080,75.751213 
	C833.994080,75.751213 834.450684,75.919357 834.721558,76.438324 
	C835.044617,104.970055 835.096863,132.982819 835.149048,160.995590 
	C835.052979,161.742157 834.956909,162.488739 834.693848,163.926941 
	C832.642273,170.064117 830.757629,175.509674 828.872986,180.955215 
	C812.000427,205.583557 767.171997,203.681549 750.585327,184.941193 
	C747.979858,181.997406 745.992676,178.506332 743.367432,174.734772 
	C741.719055,170.117386 740.422913,166.033539 739.126831,161.949692 
	C739.089722,160.890991 739.052612,159.832275 739.004639,157.921066 
	C739.005493,130.068924 739.017334,103.069290 739.029175,76.069656 
	C739.192871,76.019478 739.356689,75.969307 740.222595,75.932846 
	C748.614441,75.888115 756.304138,75.829666 763.993896,75.771210 
	C764.310364,75.996796 764.626770,76.222382 764.978394,77.190140 
	C765.008484,103.045135 764.984375,128.158005 765.035706,153.270706 
	C765.039673,155.199142 765.575806,157.126495 765.864502,159.054367 
z"/>
<path fill="#FDFDFD" opacity="1.000000" stroke="none" 
	d="
M583.057129,129.999496 
	C582.723511,130.474274 582.389954,130.949051 581.967773,132.055893 
	C580.264160,137.125198 578.648987,141.562424 577.033813,145.999649 
	C569.668274,165.339813 562.293579,184.676468 554.941650,204.021805 
	C551.843994,212.172729 548.794495,220.341919 545.626221,228.760284 
	C537.375244,228.760284 528.940063,228.760284 520.052673,228.760284 
	C523.911987,219.114792 527.940186,209.602478 531.445190,199.901093 
	C532.333496,197.442245 532.353088,194.074875 531.420044,191.643784 
	C521.122070,164.811646 510.557129,138.082001 499.888336,110.875412 
	C509.237610,110.875412 518.228149,110.875412 527.370483,110.875412 
	C528.171326,113.370331 528.963989,115.839722 529.895386,119.044418 
	C535.020630,136.533310 540.007202,153.286896 545.228271,170.828400 
	C551.881836,150.027298 558.211975,130.237167 564.435059,110.781860 
	C573.294983,110.781860 581.499451,110.781860 589.753601,110.781860 
	C587.453491,117.382690 585.255310,123.691093 583.057129,129.999496 
z"/>
<path fill="#FDFDFD" opacity="1.000000" stroke="none" 
	d="
M911.749817,189.765762 
	C899.434509,201.921417 870.759460,201.536362 858.472839,192.358475 
	C850.542175,186.434479 845.911377,178.115570 846.094177,168.398926 
	C853.302917,168.398926 860.535583,168.398926 868.206177,168.398926 
	C869.205872,174.032318 871.721558,179.427963 878.306213,180.364639 
	C882.553772,180.968857 887.217957,180.532379 891.368408,179.382278 
	C895.256897,178.304764 897.209412,174.826355 897.045105,170.445374 
	C896.887695,166.249237 894.282349,164.011978 890.780823,163.118820 
	C884.392151,161.489227 877.865540,160.404510 871.407776,159.038956 
	C869.317688,158.596985 867.245850,158.046097 865.195129,157.444519 
	C855.512329,154.604080 848.738831,148.759232 847.363770,138.399475 
	C846.080017,128.727814 850.209351,120.981483 857.633972,114.969681 
	C871.722534,103.561859 900.524902,105.538086 912.456421,119.182396 
	C915.837341,123.048653 917.529907,128.391342 920.423523,133.864136 
	C911.103760,133.864136 903.477173,133.864136 895.886841,133.864136 
	C892.014404,125.531311 884.415710,122.323814 875.923706,126.135330 
	C873.475220,127.234322 870.564209,130.424286 870.467468,132.763275 
	C870.370667,135.102127 873.040771,138.835037 875.361328,139.738007 
	C880.824829,141.863953 886.796326,142.696274 892.574951,143.996002 
	C896.110962,144.791336 899.719238,145.302414 903.210938,146.251053 
	C923.902100,151.872467 923.579529,175.921722 914.082153,187.355270 
	C913.445984,188.121124 912.700806,188.796494 911.749817,189.765762 
z"/>
<path fill="#080808" opacity="1.000000" stroke="none" 
	d="
M583.409180,129.933655 
	C585.255310,123.691093 587.453491,117.382690 589.753601,110.781860 
	C581.499451,110.781860 573.294983,110.781860 564.435059,110.781860 
	C558.211975,130.237167 551.881836,150.027298 545.228271,170.828400 
	C540.007202,153.286896 535.020630,136.533310 530.069519,119.390228 
	C530.658081,119.314751 531.646301,119.570435 531.697388,119.951767 
	C532.229309,123.918594 534.729370,125.869591 538.128662,127.632004 
	C542.256104,129.771927 541.994995,133.139420 538.447449,136.249008 
	C537.525024,137.057541 537.767334,139.194809 537.292908,141.670181 
	C541.001831,138.410156 544.975830,139.105545 544.482300,141.948181 
	C543.603027,147.012009 547.510010,146.962601 550.348389,149.095703 
	C551.487366,145.803848 552.504456,142.885986 553.501282,139.961227 
	C553.659851,139.496002 553.979126,138.861069 553.800903,138.538315 
	C549.183044,130.176758 556.131653,122.668671 554.511658,114.548157 
	C555.012878,114.373894 555.514099,114.199631 556.015259,114.025368 
	C557.370605,115.142487 558.726013,116.259605 560.848816,118.009315 
	C561.170410,114.587128 561.990723,111.528183 561.582092,108.643318 
	C561.156128,105.635735 562.357544,104.936768 564.695618,105.039810 
	C571.251526,105.328743 577.801025,105.764069 584.353027,106.141640 
	C584.368896,106.610809 584.384766,107.079971 584.400635,107.549141 
	C578.328491,107.549141 572.256348,107.549141 566.184265,107.549141 
	C566.193787,107.876442 566.203308,108.203735 566.212830,108.531036 
	C575.142090,108.531036 584.071350,108.531036 593.222961,108.531036 
	C593.427124,109.686852 593.681274,111.125694 594.248901,114.339462 
	C596.589050,107.830902 600.811829,109.062943 604.564453,109.011017 
	C608.230408,108.960274 611.897705,109.008156 615.564270,108.994354 
	C616.562378,108.990601 617.611755,109.103729 618.546753,108.840416 
	C620.183533,108.379501 621.749939,107.668823 623.345825,107.062798 
	C622.732361,108.777138 622.118896,110.491470 621.111938,113.305313 
	C623.084229,112.494629 625.258911,112.223541 625.487610,111.407280 
	C627.162781,105.427498 629.732178,104.210709 636.074707,106.423248 
	C640.429321,107.942314 646.063660,105.607933 651.144348,105.289474 
	C655.137451,105.039185 659.174011,105.073608 663.148010,105.444641 
	C663.645142,105.491043 663.877808,108.370178 664.199463,109.788841 
	C666.769287,111.335472 669.638489,113.062302 672.852722,114.939102 
	C671.814636,117.079773 670.431519,119.070457 668.934692,121.224808 
	C661.690125,103.679077 630.575195,102.920860 619.283997,121.459511 
	C619.283997,117.311172 619.283997,114.017487 619.283997,110.604820 
	C611.962524,110.604820 605.188232,110.604820 598.210938,110.604820 
	C598.210938,138.847076 598.210938,167.105682 598.210938,195.679962 
	C605.561829,195.679962 612.961548,195.679962 620.990967,195.679962 
	C620.990967,192.927704 620.991028,190.001663 620.990967,187.075623 
	C620.990662,173.426147 620.696899,159.766739 621.159180,146.132950 
	C621.308655,141.726334 623.443665,137.387024 624.929932,132.807129 
	C626.665710,138.207809 628.875793,143.823303 623.871277,149.001694 
	C623.108887,149.790619 623.051086,151.468002 623.037354,152.738449 
	C622.961670,159.722702 622.854065,166.713425 623.101257,173.689743 
	C623.165527,175.503647 624.461121,177.273926 625.191162,179.064224 
	C625.908875,179.054962 626.626587,179.045715 627.344299,179.036453 
	C625.984314,182.365128 624.212402,185.598724 623.414246,189.057037 
	C622.911987,191.233444 623.934448,193.740631 624.148621,196.110641 
	C624.299011,197.775208 624.240234,199.458710 624.274902,201.133743 
	C622.332764,200.875641 619.854370,201.283966 618.549194,200.234009 
	C614.686829,197.126846 613.031250,197.308243 609.651611,200.596283 
	C608.078735,202.126572 605.059448,202.170181 601.763367,203.170731 
	C602.571899,201.064850 602.995117,199.962509 603.915466,197.565231 
	C601.534485,198.367920 599.930420,198.938431 598.306519,199.445679 
	C597.227661,199.782700 596.120605,200.029251 595.026123,200.316315 
	C594.826904,199.104004 594.515137,197.897293 594.454285,196.678085 
	C594.357605,194.740234 594.428406,192.794037 594.428406,190.851364 
	C593.947021,190.725952 593.465637,190.600525 592.984253,190.475113 
	C593.967896,189.547775 594.951599,188.620453 596.184631,187.458008 
	C595.070007,186.526001 594.128845,185.738998 592.921631,184.729553 
	C593.848267,183.553711 594.714355,182.454651 595.639465,181.280792 
	C592.380981,178.048965 591.201477,174.718430 595.519043,171.063492 
	C590.795227,169.165741 592.194397,164.955658 592.042114,161.315750 
	C591.948181,159.071350 592.028687,156.816528 592.113098,154.569473 
	C592.143250,153.768372 592.176025,152.462173 592.613892,152.258118 
	C598.331787,149.593124 595.347656,144.500595 595.904724,140.464203 
	C596.050293,139.409210 594.856995,138.235504 594.656372,137.052246 
	C594.292786,134.908218 593.798340,132.653549 594.114136,130.558975 
	C594.563538,127.578522 595.694946,124.700905 596.630005,121.448814 
	C589.276794,121.379875 585.888184,124.767281 583.409180,129.933655 
M621.726440,115.106720 
	C621.817627,115.071304 621.908813,115.035881 622.273438,114.892693 
	C622.182312,114.928261 622.091125,114.963829 621.726440,115.106720 
z"/>
<path fill="#000100" opacity="1.000000" stroke="none" 
	d="
M114.517403,81.108170 
	C114.928871,81.185623 114.951881,81.360870 114.956833,82.248184 
	C114.914970,121.305984 114.891159,159.651703 114.867340,197.997421 
	C114.246002,196.671066 113.085487,195.346176 113.081902,194.018143 
	C112.983353,157.596878 112.992104,121.175293 113.049767,84.753860 
	C113.051643,83.570656 113.753426,82.388557 114.517403,81.108170 
z"/>
<path fill="#000100" opacity="1.000000" stroke="none" 
	d="
M339.516113,84.001984 
	C340.009613,85.268913 340.931396,86.534882 340.934204,87.802902 
	C341.012054,122.701080 341.003967,157.599487 340.959991,192.497787 
	C340.958649,193.565674 340.421753,194.632874 339.718964,195.382721 
	C339.301056,192.906845 339.292755,190.748611 339.297211,188.590424 
	C339.369202,153.727615 339.442871,118.864799 339.516113,84.001984 
z"/>
<path fill="#030303" opacity="1.000000" stroke="none" 
	d="
M835.533447,160.890656 
	C835.096863,132.982819 835.044617,104.970055 834.958984,76.491295 
	C835.616760,77.288460 836.905457,78.548920 836.911133,79.815163 
	C837.028381,105.778320 837.011597,131.742172 836.953491,157.705719 
	C836.951172,158.733170 836.278320,159.759109 835.533447,160.890656 
z"/>
<path fill="#020303" opacity="1.000000" stroke="none" 
	d="
M738.788574,75.817276 
	C739.017334,103.069290 739.005493,130.068924 738.920776,157.531906 
	C738.231873,156.669815 737.084351,155.346649 737.078674,154.018585 
	C736.971924,128.972198 736.980530,103.925156 737.065918,78.878593 
	C737.069702,77.772362 738.032104,76.669395 738.788574,75.817276 
z"/>
<path fill="#020102" opacity="1.000000" stroke="none" 
	d="
M766.183838,158.773361 
	C765.575806,157.126495 765.039673,155.199142 765.035706,153.270706 
	C764.984375,128.158005 765.008484,103.045135 765.086548,77.469040 
	C765.772766,78.166992 766.916504,79.326149 766.920959,80.489723 
	C767.019104,105.857796 766.993958,131.226349 766.966003,156.594788 
	C766.965332,157.227478 766.664124,157.859833 766.183838,158.773361 
z"/>
<path fill="#A95FFE" opacity="1.000000" stroke="none" 
	d="
M115.006073,198.229034 
	C114.891159,159.651703 114.914970,121.305984 115.032806,82.502190 
	C115.414513,83.458443 115.952263,84.872581 115.953377,86.287140 
	C115.982704,123.595955 115.956581,160.904816 115.913162,198.698471 
	C115.639206,198.942398 115.391998,198.701508 115.006073,198.229034 
z"/>
<path fill="#A85DFF" opacity="1.000000" stroke="none" 
	d="
M339.364197,83.693604 
	C339.442871,118.864799 339.369202,153.727615 339.297211,188.590424 
	C339.292755,190.748611 339.301056,192.906845 339.364990,195.529556 
	C339.178314,196.655823 338.930115,197.317566 338.382629,198.171387 
	C338.061066,160.446930 338.037292,122.530403 338.029083,84.613876 
	C338.028931,83.962418 338.217041,83.310936 338.595581,82.356628 
	C338.986694,82.497612 339.099487,82.941414 339.364197,83.693604 
z"/>
<path fill="#080808" opacity="1.000000" stroke="none" 
	d="
M699.989014,107.495987 
	C691.600342,108.057724 682.961548,107.139969 675.461182,113.201797 
	C676.772827,104.791656 676.727051,105.093582 685.565552,106.433556 
	C689.348816,107.007133 693.364807,105.935143 697.281067,105.825768 
	C698.167542,105.801010 699.078857,106.670242 699.989014,107.495987 
z"/>
<path fill="#080808" opacity="1.000000" stroke="none" 
	d="
M720.049927,119.885757 
	C715.477417,114.272797 710.010681,109.885315 702.193237,108.412613 
	C702.734985,107.758736 703.517395,107.382515 704.649902,107.003143 
	C708.094910,108.607422 711.187927,110.218605 714.286255,111.819443 
	C714.998291,112.187309 715.705200,112.756828 716.454346,112.830933 
	C723.132935,113.491531 723.144287,113.480469 720.049927,119.885757 
z"/>
<path fill="#080808" opacity="1.000000" stroke="none" 
	d="
M577.381531,145.938263 
	C578.648987,141.562424 580.264160,137.125198 582.014526,132.344788 
	C585.194580,131.603638 586.644104,133.013657 585.908081,135.934189 
	C585.203613,138.729355 583.984070,141.394684 582.990906,144.117081 
	C582.581482,144.003159 582.171997,143.889252 581.762573,143.775345 
	C581.762573,142.500534 581.762573,141.225739 581.762573,138.776276 
	C580.068237,141.759140 578.898743,143.818008 577.381531,145.938263 
z"/>
<path fill="#030303" opacity="1.000000" stroke="none" 
	d="
M833.875244,75.376816 
	C826.300964,75.819321 818.607910,75.887428 810.444946,75.934700 
	C810.305481,75.378448 810.644775,74.370819 810.965027,74.376823 
	C818.563416,74.519310 826.159729,74.770813 833.875244,75.376816 
z"/>
<path fill="#020303" opacity="1.000000" stroke="none" 
	d="
M763.877930,75.394775 
	C756.304138,75.829666 748.614441,75.888115 740.465454,75.848755 
	C740.225342,75.319641 740.450562,74.508568 740.662903,74.511925 
	C748.363342,74.633667 756.062622,74.831230 763.877930,75.394775 
z"/>
<path fill="#020102" opacity="1.000000" stroke="none" 
	d="
M700.143982,196.114105 
	C707.742859,195.781265 715.377319,195.867645 723.470459,195.877258 
	C723.219421,196.523773 722.520935,197.861618 721.798462,197.874695 
	C715.029114,197.997131 708.255310,197.917297 701.484497,197.797607 
	C701.042236,197.789764 700.614258,196.973557 700.143982,196.114105 
z"/>
<path fill="#060606" opacity="1.000000" stroke="none" 
	d="
M649.150208,196.099091 
	C655.768677,195.788315 662.419556,195.897659 669.533936,196.079315 
	C669.663574,196.675079 669.328064,197.655563 668.995972,197.654404 
	C662.533386,197.631775 656.070984,197.500336 649.609680,197.345261 
	C649.460754,197.341660 649.324707,196.806458 649.150208,196.099091 
z"/>
<path fill="#030303" opacity="1.000000" stroke="none" 
	d="
M829.229248,180.922867 
	C830.757629,175.509674 832.642273,170.064117 834.740906,164.301483 
	C836.773071,170.765701 833.492004,175.927444 829.229248,180.922867 
z"/>
<path fill="#080808" opacity="1.000000" stroke="none" 
	d="
M607.294434,107.998810 
	C605.796570,107.859665 604.732544,107.720772 603.668457,107.581879 
	C603.672424,107.147331 603.676331,106.712784 603.680298,106.278236 
	C607.599060,106.278236 611.517822,106.278236 615.436584,106.278236 
	C615.467346,106.736786 615.498108,107.195343 615.528870,107.653893 
	C612.928650,107.768951 610.328491,107.884010 607.294434,107.998810 
z"/>
<path fill="#080808" opacity="1.000000" stroke="none" 
	d="
M723.160706,129.004761 
	C723.042786,128.590286 722.924866,128.175827 723.027954,127.316284 
	C723.500854,126.580574 723.752686,126.289955 724.004517,125.999329 
	C726.936279,125.465530 728.406860,126.992195 728.517151,129.666977 
	C728.537292,130.156143 726.629333,130.724777 725.270386,130.821045 
	C724.339783,129.925171 723.750244,129.464966 723.160706,129.004761 
z"/>
<path fill="#020303" opacity="1.000000" stroke="none" 
	d="
M738.832275,162.180664 
	C740.422913,166.033539 741.719055,170.117386 743.062683,174.581604 
	C741.585999,170.778519 740.061890,166.595062 738.832275,162.180664 
z"/>
<path fill="#020102" opacity="1.000000" stroke="none" 
	d="
M697.285522,134.597076 
	C698.260620,136.517258 699.123047,138.872803 699.920532,141.611496 
	C698.961365,139.673904 698.067078,137.353180 697.285522,134.597076 
z"/>
<path fill="#020102" opacity="1.000000" stroke="none" 
	d="
M768.919678,166.913330 
	C767.937866,165.449356 766.986816,163.584839 766.089233,161.362793 
	C767.078552,162.841095 768.014404,164.676941 768.919678,166.913330 
z"/>
<path fill="#060606" opacity="1.000000" stroke="none" 
	d="
M647.820312,139.183075 
	C648.400208,140.388229 648.695679,141.816635 648.925293,143.621277 
	C648.418274,142.467117 647.977112,140.936707 647.820312,139.183075 
z"/>
<path fill="#0B0B0B" opacity="1.000000" stroke="none" 
	d="
M383.454895,124.010452 
	C383.621155,125.120865 383.426178,126.244507 383.086945,127.684227 
	C382.320801,127.228012 381.457794,126.526031 381.201508,125.647125 
	C381.105499,125.317902 382.421478,124.576920 383.454895,124.010452 
z"/>
<path fill="#0B0B0B" opacity="1.000000" stroke="none" 
	d="
M452.992493,75.456772 
	C452.178528,75.661209 451.354034,75.516464 450.264832,75.192627 
	C450.434875,74.404198 450.869659,73.794846 451.304443,73.185493 
	C451.863617,73.826195 452.422791,74.466896 452.992493,75.456772 
z"/>
<path fill="#020102" opacity="1.000000" stroke="none" 
	d="
M723.094971,129.328232 
	C723.750244,129.464966 724.339783,129.925171 724.964661,130.692688 
	C724.772827,131.278137 724.545654,131.556274 724.072327,131.953064 
	C723.560547,131.265045 723.294861,130.458374 723.094971,129.328232 
z"/>
<path fill="#0B0B0B" opacity="1.000000" stroke="none" 
	d="
M426.956177,75.631882 
	C426.519714,76.232803 426.039368,76.528442 425.277588,76.801468 
	C425.038940,75.901131 425.081726,75.023399 425.124481,74.145676 
	C425.720428,74.539314 426.316345,74.932953 426.956177,75.631882 
z"/>
<path fill="#060606" opacity="1.000000" stroke="none" 
	d="
M673.432068,139.944824 
	C673.195129,139.116302 673.278137,138.234787 673.640808,137.162903 
	C673.864319,137.945648 673.808167,138.918716 673.432068,139.944824 
z"/>
<path fill="#080808" opacity="1.000000" stroke="none" 
	d="
M625.966675,132.377625 
	C626.387268,131.599579 627.162659,131.011490 628.208130,130.295624 
	C627.759338,130.967789 627.040405,131.767685 625.966675,132.377625 
z"/>
<path fill="#060606" opacity="1.000000" stroke="none" 
	d="
M676.394531,132.992462 
	C676.808350,132.297485 677.599670,131.589478 678.696899,130.757751 
	C678.259216,131.415817 677.515564,132.197617 676.394531,132.992462 
z"/>
<path fill="#020102" opacity="1.000000" stroke="none" 
	d="
M723.842102,125.757568 
	C723.752686,126.289955 723.500854,126.580574 722.984619,126.995865 
	C722.485046,126.614426 722.249817,126.108337 722.033569,125.302246 
	C722.594910,125.173431 723.137268,125.344620 723.842102,125.757568 
z"/>
<path fill="#080808" opacity="1.000000" stroke="none" 
	d="
M705.283325,106.964539 
	C705.301636,106.491524 705.603333,105.983055 705.904968,105.474594 
	C706.113770,105.655373 706.322510,105.836151 706.531311,106.016922 
	C706.209717,106.320961 705.888184,106.625023 705.283325,106.964539 
z"/>
<path fill="#0B0B0B" opacity="1.000000" stroke="none" 
	d="
M382.593414,146.665497 
	C382.964905,146.837723 382.821747,147.053207 382.821228,147.057678 
	C382.584869,147.409805 382.377014,147.784592 382.088898,148.081467 
	C382.033600,148.138474 381.662811,147.889252 381.437561,147.781311 
	C381.699036,147.351959 381.960480,146.922607 382.593414,146.665497 
z"/>
<path fill="#A95FFE" opacity="1.000000" stroke="none" 
	d="
M115.765724,199.340378 
	C115.952820,199.322861 116.166359,199.542740 116.214340,199.871674 
	C116.048775,199.980728 115.792175,199.577774 115.765724,199.340378 
z"/>
<path fill="#0B0B0B" opacity="1.000000" stroke="none" 
	d="
M456.871460,75.402328 
	C456.967743,75.630775 456.828308,75.586136 456.784973,75.617340 
	C456.623138,75.533791 456.504639,75.419029 456.386169,75.304268 
	C456.515839,75.260803 456.645477,75.217339 456.871460,75.402328 
z"/>
<path fill="#0A090A" opacity="1.000000" stroke="none" 
	d="
M134.944199,83.798096 
	C139.755981,80.717255 144.457626,77.444145 149.409149,74.607193 
	C154.857391,71.485649 160.665070,68.987373 166.086487,65.823936 
	C177.522049,59.151176 188.785553,52.184227 200.168579,45.420326 
	C203.595688,43.383907 207.184235,41.619160 211.200348,39.370422 
	C212.846008,38.366936 213.990158,37.722984 215.134293,37.079037 
	C215.134293,37.079037 215.041870,37.055622 215.385437,37.026352 
	C217.876144,35.702778 220.023300,34.408470 222.170456,33.114159 
	C222.170456,33.114159 222.050491,33.080162 222.358078,33.088806 
	C223.167374,32.768456 223.669083,32.439453 224.170792,32.110455 
	C224.170792,32.110455 224.042877,32.064510 224.429626,32.092117 
	C226.854370,32.491207 228.892349,32.862694 230.930344,33.234177 
	C230.930344,33.234180 230.930984,33.104252 231.035339,33.404739 
	C232.419205,34.422550 233.698685,35.139877 234.978180,35.857201 
	C241.359787,39.239483 247.827759,42.469810 254.104599,46.036469 
	C266.257904,52.942287 278.335693,59.982956 290.383606,67.071724 
	C299.741058,72.577477 309.005646,78.241150 318.869110,84.057175 
	C319.582428,84.360794 319.738129,84.441864 319.893860,84.522942 
	C320.381531,84.975075 320.869171,85.427208 321.696472,86.225899 
	C322.315033,86.795052 322.593933,87.017647 322.872833,87.240250 
	C322.872833,87.240250 322.889404,87.065849 322.856354,87.539658 
	C322.836243,122.693672 322.849182,157.373871 322.862122,192.054077 
	C317.503815,195.699905 312.301605,199.605133 306.757538,202.942337 
	C290.890228,212.493591 274.910278,221.858978 258.921844,231.207184 
	C250.742355,235.989594 242.410828,240.511948 234.230759,245.293381 
	C231.519272,246.878281 229.416595,249.830856 225.649490,248.498138 
	C224.018967,247.921295 222.225937,247.606918 220.787155,246.718933 
	C214.446487,242.805756 208.331985,238.514374 201.900101,234.763779 
	C194.443787,230.415771 186.621826,226.693527 179.177841,222.325943 
	C171.161926,217.622803 163.436539,212.427322 155.516647,207.556793 
	C148.122040,203.009247 140.638565,198.606186 132.733368,193.737320 
	C132.175690,192.892700 132.078827,192.450317 132.281311,191.714905 
	C132.720749,190.282501 132.983124,189.143127 132.983246,188.003723 
	C132.987030,153.951111 132.964859,119.898491 132.946808,85.845879 
	C133.258423,85.468613 133.570038,85.091347 134.204147,84.389244 
	C134.526627,84.064400 134.944199,83.798096 134.944199,83.798096 
M275.126404,95.612396 
	C275.079590,95.420898 275.032776,95.229393 274.921997,94.316719 
	C273.010681,92.948799 271.188599,90.618454 269.167847,90.431137 
	C265.866547,90.125122 261.470215,89.037476 260.082214,94.085953 
	C260.082214,94.085953 260.213104,94.163460 259.456696,94.166977 
	C258.305298,97.086449 256.358795,99.952988 256.160187,102.935898 
	C255.675827,110.211426 256.119293,117.544456 255.896591,124.845428 
	C255.854172,126.236115 254.537308,128.727982 253.689743,128.780045 
	C243.784897,129.388535 233.859085,129.703812 223.935074,129.935654 
	C217.713364,130.081024 211.473679,129.717911 205.263672,130.022903 
	C200.161087,130.273544 198.016617,128.671432 197.998367,123.582092 
	C197.989426,121.090851 198.258331,118.563950 197.927444,116.117287 
	C197.511978,113.045296 196.610474,110.039024 195.777969,106.179726 
	C195.837158,104.790108 195.896332,103.400482 196.462463,101.643257 
	C196.299362,100.759789 196.136261,99.876320 195.770599,98.376160 
	C195.130920,97.125381 194.491241,95.874611 193.708221,94.288437 
	C193.708221,94.288437 193.382843,94.123634 193.098160,93.766106 
	C192.734909,93.476967 192.371674,93.187820 191.890686,92.169876 
	C188.708740,89.003883 182.654007,90.009323 179.972519,94.532822 
	C179.972519,94.532822 179.882294,94.929810 179.971451,94.963135 
	C179.971451,94.963135 179.926544,94.879211 179.567337,95.003891 
	C179.567337,95.003891 179.195053,95.081085 178.576752,95.095276 
	C178.414963,95.741386 178.253174,96.387505 178.074844,97.966599 
	C178.068680,126.636543 178.062515,155.306488 177.560577,184.351517 
	C178.512863,187.882065 179.258713,188.465912 182.897110,188.030136 
	C185.945999,187.640015 188.994873,187.249908 192.720337,186.945206 
	C193.245911,186.365753 193.771484,185.786301 194.099213,185.099762 
	C194.099213,185.099762 194.262634,185.254364 194.814301,185.166809 
	C194.891006,184.804031 194.967728,184.441269 195.362152,183.811432 
	C195.583038,183.545700 195.564316,183.298141 195.549911,182.155533 
	C195.681717,171.099472 195.813522,160.043411 195.982361,149.014679 
	C195.982361,149.014679 195.997925,148.971344 196.935287,148.981705 
	C217.291397,148.967529 237.647522,148.953369 258.048401,149.013809 
	C258.048401,149.013809 258.123260,148.969467 258.533630,149.836029 
	C258.522583,155.615540 258.408966,161.397171 258.528961,167.173950 
	C258.651672,173.082535 259.003448,178.986343 259.334900,185.497681 
	C260.253326,186.245911 261.171783,186.994156 262.954407,187.987885 
	C266.336487,187.673981 269.718536,187.360062 273.025787,187.029175 
	C273.025787,187.029175 273.024323,187.105896 273.572571,186.959976 
	C273.774017,186.657623 273.975464,186.355270 274.061249,186.102234 
	C274.061249,186.102234 274.133514,186.205124 274.709717,185.901779 
	C275.188080,184.932846 275.666412,183.963898 276.913422,182.784393 
	C277.275024,181.761078 277.950165,180.738480 277.952454,179.714355 
	C278.010925,153.651260 278.022400,127.587914 277.922699,101.525063 
	C277.918213,100.351570 276.795349,99.182343 276.047577,97.425499 
	C276.045959,97.224335 276.044373,97.023163 275.936279,96.523323 
	C275.840088,96.326149 275.696259,96.174026 275.126404,95.612396 
M167.025879,111.972916 
	C167.025879,111.972916 167.104553,111.943710 166.828506,111.373260 
	C165.898285,110.977867 164.968048,110.582474 163.223251,110.289803 
	C160.145676,110.565674 157.068085,110.841553 153.435028,111.222343 
	C153.146240,111.689514 152.857437,112.156685 152.576813,112.715439 
	C152.576813,112.715439 152.635178,112.786507 152.001434,113.235298 
	C151.690674,114.662239 151.116562,116.087891 151.109604,117.516312 
	C151.034515,132.932983 150.986008,148.350647 151.122971,163.766342 
	C151.138916,165.562057 152.315735,167.347473 153.104340,169.605865 
	C153.307251,169.882431 153.575180,170.061935 154.406448,170.838486 
	C158.658768,170.507935 163.289505,172.807083 166.995697,169.004501 
	C166.995697,169.004501 167.021637,169.048508 167.598160,168.650497 
	C168.015717,167.109024 168.433273,165.567551 169.011948,163.098160 
	C168.965500,156.717377 168.919067,150.336578 168.974075,143.116699 
	C168.939804,141.428070 168.905533,139.739441 169.020966,137.124725 
	C168.969452,132.734940 168.917938,128.345139 168.968918,123.082031 
	C168.935638,120.738487 168.902359,118.394943 169.002518,115.478928 
	C168.794952,114.960251 168.587372,114.441566 168.200134,113.316910 
	C167.817657,112.842400 167.435165,112.367889 167.025879,111.972916 
M301.081635,111.904449 
	C301.081635,111.904449 301.186005,111.882164 300.781525,111.180992 
	C296.524445,111.129745 292.267334,111.078499 287.310608,111.285873 
	C286.602600,113.419746 285.308136,115.546143 285.280792,117.688690 
	C285.088074,132.799744 285.033844,147.916000 285.269348,163.025375 
	C285.305481,165.343048 287.060516,167.633926 288.627869,170.489426 
	C293.301910,170.986160 298.224945,172.788330 302.263641,167.322098 
	C302.459045,165.889633 302.654449,164.457169 302.997131,162.346375 
	C302.946564,161.889099 302.895996,161.431839 302.949615,160.045761 
	C302.925049,146.378967 302.900513,132.712158 303.027527,118.282417 
	C302.978546,117.509758 302.929535,116.737106 302.958405,115.283623 
	C302.350922,114.126602 301.743408,112.969574 301.081635,111.904449 
z"/>
<path fill="#030502" opacity="1.000000" stroke="none" 
	d="
M132.727951,85.934273 
	C132.964859,119.898491 132.987030,153.951111 132.983246,188.003723 
	C132.983124,189.143127 132.720749,190.282501 132.099274,191.615692 
	C131.617935,191.809509 131.223862,191.680847 131.223862,191.680847 
	C131.223862,191.680847 131.126816,191.846283 131.175537,191.509827 
	C131.115158,190.458939 131.006042,189.744492 130.896942,189.030060 
	C130.944412,188.570328 130.991867,188.110596 131.016937,186.988831 
	C130.956345,185.895950 130.918137,185.465118 130.879913,185.034286 
	C130.929459,182.644547 130.979004,180.254822 131.006317,176.977966 
	C130.948303,173.399612 130.912552,170.708374 130.876801,168.017120 
	C130.927887,165.632904 130.978973,163.248703 131.007004,160.029236 
	C130.947845,158.134995 130.911728,157.076004 130.875610,156.016998 
	C130.927383,150.975311 130.979156,145.933609 131.006439,140.108337 
	C130.945526,138.895264 130.909103,138.465775 130.872696,138.036301 
	C130.924759,134.979141 130.976837,131.921997 131.005890,127.992249 
	C130.946396,125.426308 130.909912,123.732971 130.873428,122.039627 
	C130.927124,119.315269 130.980804,116.590904 131.000793,113.183060 
	C130.967087,112.499580 130.874191,112.029022 130.874191,112.029022 
	C130.931213,104.656487 130.988251,97.283958 131.090088,89.126038 
	C131.283691,87.917557 131.432480,87.494476 131.581268,87.071381 
	C131.890533,86.721809 132.199814,86.372238 132.727951,85.934273 
z"/>
<path fill="#8E4EED" opacity="1.000000" stroke="none" 
	d="
M323.227173,191.870514 
	C322.849182,157.373871 322.836243,122.693672 322.769409,87.550201 
	C323.474915,89.499222 324.883545,91.908356 324.895325,94.324295 
	C325.045380,125.100105 325.017059,155.876953 324.935822,186.653275 
	C324.931396,188.332336 324.060059,190.009125 323.227173,191.870514 
z"/>
<path fill="#9553F4" opacity="1.000000" stroke="none" 
	d="
M130.500916,168.103424 
	C130.912552,170.708374 130.948303,173.399612 130.928558,176.536346 
	C127.537094,174.313721 128.805939,171.253860 130.500916,168.103424 
z"/>
<path fill="#9854F3" opacity="1.000000" stroke="none" 
	d="
M221.790771,33.080036 
	C220.023300,34.408470 217.876144,35.702778 215.384155,37.074013 
	C217.163254,35.782597 219.287170,34.414253 221.790771,33.080036 
z"/>
<path fill="#9854F3" opacity="1.000000" stroke="none" 
	d="
M230.811981,32.866783 
	C228.892349,32.862694 226.854370,32.491207 224.417969,32.159065 
	C226.244247,32.298733 228.468933,32.399059 230.811981,32.866783 
z"/>
<path fill="#9553F4" opacity="1.000000" stroke="none" 
	d="
M130.541595,156.074738 
	C130.911728,157.076004 130.947845,158.134995 130.929565,159.588379 
	C130.652634,158.699341 130.430099,157.415909 130.541595,156.074738 
z"/>
<path fill="#9854F3" opacity="1.000000" stroke="none" 
	d="
M234.943588,35.501762 
	C233.698685,35.139877 232.419205,34.422550 230.973038,33.423119 
	C232.173904,33.809456 233.541458,34.477890 234.943588,35.501762 
z"/>
<path fill="#9854F3" opacity="1.000000" stroke="none" 
	d="
M214.769745,37.055534 
	C213.990158,37.722984 212.846008,38.366936 211.361923,39.054230 
	C212.149719,38.409058 213.277466,37.720547 214.769745,37.055534 
z"/>
<path fill="#9553F4" opacity="1.000000" stroke="none" 
	d="
M130.617569,122.290588 
	C130.909912,123.732971 130.946396,125.426308 130.928268,127.539955 
	C130.703003,126.154022 130.532364,124.347786 130.617569,122.290588 
z"/>
<path fill="#9553F4" opacity="1.000000" stroke="none" 
	d="
M130.648560,189.228119 
	C131.006042,189.744492 131.115158,190.458939 131.268433,191.533691 
	C131.008453,191.071396 130.704315,190.248779 130.648560,189.228119 
z"/>
<path fill="#9553F4" opacity="1.000000" stroke="none" 
	d="
M130.665405,185.174728 
	C130.918137,185.465118 130.956345,185.895950 130.942764,186.648254 
	C130.744278,186.418213 130.597595,185.866699 130.665405,185.174728 
z"/>
<path fill="#9553F4" opacity="1.000000" stroke="none" 
	d="
M131.192291,192.060242 
	C131.223862,191.680847 131.617935,191.809509 131.799957,191.908722 
	C132.078827,192.450317 132.175690,192.892700 132.426788,193.644714 
	C132.107590,193.449417 131.634171,192.944534 131.192291,192.060242 
z"/>
<path fill="#9854F3" opacity="1.000000" stroke="none" 
	d="
M223.837463,32.100769 
	C223.669083,32.439453 223.167374,32.768456 222.355194,33.151089 
	C222.531204,32.833508 223.017670,32.462296 223.837463,32.100769 
z"/>
<path fill="#9553F4" opacity="1.000000" stroke="none" 
	d="
M131.286072,87.136513 
	C131.432480,87.494476 131.283691,87.917557 131.028946,88.659515 
	C130.945633,88.386139 130.968262,87.793892 131.286072,87.136513 
z"/>
<path fill="#9553F4" opacity="1.000000" stroke="none" 
	d="
M130.661804,138.177429 
	C130.909103,138.465775 130.945526,138.895264 130.928909,139.644775 
	C130.734238,139.416077 130.592575,138.867325 130.661804,138.177429 
z"/>
<path fill="#9553F4" opacity="1.000000" stroke="none" 
	d="
M130.719574,112.112694 
	C130.874191,112.029022 130.967087,112.499580 130.922348,112.735207 
	C130.773392,112.712677 130.669189,112.454521 130.719574,112.112694 
z"/>
<path fill="#9553F4" opacity="1.000000" stroke="none" 
	d="
M134.810272,83.665695 
	C134.944199,83.798096 134.526627,84.064400 134.296082,84.154785 
	C134.269150,84.007874 134.472763,83.770584 134.810272,83.665695 
z"/>
<path fill="#8E4EED" opacity="1.000000" stroke="none" 
	d="
M319.877625,84.302460 
	C319.738129,84.441864 319.582428,84.360794 319.217712,84.119530 
	C319.292908,84.000214 319.577148,84.041100 319.877625,84.302460 
z"/>
<path fill="#8E4EED" opacity="1.000000" stroke="none" 
	d="
M322.799805,86.965836 
	C322.593933,87.017647 322.315033,86.795052 321.933533,86.309624 
	C322.129547,86.261673 322.428162,86.476555 322.799805,86.965836 
z"/>
<path fill="#090909" opacity="1.000000" stroke="none" 
	d="
M622.000000,115.000465 
	C621.908813,115.035881 621.817627,115.071304 621.863220,115.053360 
	C622.000000,115.000000 622.000000,115.000473 622.000000,115.000465 
z"/>
<path fill="#090909" opacity="1.000000" stroke="none" 
	d="
M622.000000,114.999695 
	C622.091125,114.963829 622.182312,114.928261 622.136719,114.946579 
	C622.000000,115.000473 622.000000,115.000000 622.000000,114.999695 
z"/>
<path fill="#7F46D9" opacity="1.000000" stroke="none" 
	d="
M192.043762,186.859802 
	C188.994873,187.249908 185.945999,187.640015 182.353912,187.656982 
	C180.779770,186.238663 179.748840,185.193512 179.056229,183.873566 
	C179.596146,182.476242 179.973297,181.353745 179.973633,180.231155 
	C179.981979,151.780502 179.950806,123.329857 179.926544,94.879211 
	C179.926544,94.879211 179.971451,94.963135 180.244644,94.956665 
	C181.016510,94.620605 181.515182,94.291023 182.436462,93.979034 
	C185.571945,93.704903 188.284790,93.413162 191.074036,93.462906 
	C191.894577,93.910797 192.638702,94.017220 193.382843,94.123634 
	C193.382843,94.123634 193.708221,94.288437 193.551849,94.852905 
	C193.583771,106.126068 193.692413,116.837448 194.052429,127.540375 
	C194.102325,129.023758 195.393814,130.465363 196.096771,131.963898 
	C196.083023,132.001480 196.004456,131.986191 196.288437,132.294022 
	C197.215881,132.732285 197.859238,132.975922 198.502838,132.976654 
	C217.111786,132.997711 235.720810,133.013229 254.329575,132.952332 
	C255.551285,132.948334 256.770996,132.330078 258.113464,131.824539 
	C258.414917,131.430313 258.624908,131.243164 259.190125,130.808319 
	C259.661438,118.824150 259.807861,107.121735 259.949036,95.202240 
	C260.082123,94.727180 260.171875,94.453278 260.213104,94.163460 
	C260.213104,94.163460 260.082214,94.085953 260.566956,94.068069 
	C265.371368,94.387909 269.691040,94.725616 274.055420,95.392555 
	C274.594482,96.079659 275.088867,96.437531 275.698547,96.794495 
	C275.813873,96.793579 276.042755,96.821999 276.042755,96.821999 
	C276.044373,97.023163 276.045959,97.224335 276.054749,97.979767 
	C276.002289,98.703575 275.942596,98.873116 275.601074,99.344391 
	C275.207184,104.401222 274.937531,109.159378 275.029419,113.910530 
	C275.113586,118.264069 275.588104,122.610062 275.971069,127.377678 
	C275.998169,129.210526 275.944885,130.625076 275.640320,132.244965 
	C275.556671,133.620377 275.724304,134.790451 275.972717,136.424957 
	C275.999573,142.606140 275.945618,148.322922 275.622620,154.297546 
	C275.533478,156.690872 275.713440,158.826355 275.973572,161.404404 
	C275.999786,164.241867 275.945801,166.636765 275.728302,169.109161 
	C275.673889,169.447250 275.783020,169.707825 275.973114,170.370728 
	C276.000397,171.861862 275.946686,172.950684 275.612701,174.323990 
	C274.932800,178.474030 274.533173,182.339569 274.133514,186.205124 
	C274.133514,186.205124 274.061249,186.102234 273.854065,186.163055 
	C273.439362,186.517883 273.231842,186.811890 273.024323,187.105896 
	C273.024323,187.105896 273.025787,187.029175 272.605713,187.027405 
	C268.820465,187.264557 265.455353,187.503479 262.090210,187.742386 
	C261.171783,186.994156 260.253326,186.245911 259.542053,184.874710 
	C259.829041,173.488968 259.958588,162.725952 259.906494,151.963821 
	C259.901642,150.962845 258.745056,149.967453 258.123260,148.969467 
	C258.123260,148.969467 258.048401,149.013809 257.725922,148.686768 
	C256.757324,148.239960 256.111298,148.016312 255.465042,148.015503 
	C236.867432,147.992386 218.269745,147.973007 199.672302,148.029495 
	C198.446579,148.033218 197.222672,148.643295 195.997925,148.971344 
	C195.997925,148.971344 195.982361,149.014679 195.586029,149.138199 
	C194.798813,150.076630 194.067886,150.891739 194.068298,151.706436 
	C194.074112,162.889114 194.180756,174.071732 194.262634,185.254364 
	C194.262634,185.254364 194.099213,185.099762 193.893799,185.162201 
	C193.140182,185.769699 192.591965,186.314743 192.043762,186.859802 
z"/>
<path fill="#8046DA" opacity="1.000000" stroke="none" 
	d="
M168.872635,143.955795 
	C168.919067,150.336578 168.965500,156.717377 168.572296,163.638290 
	C167.762314,165.801788 167.391968,167.425140 167.021637,169.048508 
	C167.021637,169.048508 166.995697,169.004501 166.602570,169.007233 
	C162.109009,169.388092 158.008575,169.766251 153.908142,170.144394 
	C153.575180,170.061935 153.307251,169.882431 153.047150,168.894073 
	C152.871704,149.717010 152.753448,131.251755 152.635178,112.786507 
	C152.635178,112.786507 152.576813,112.715439 152.886261,112.688423 
	C153.460632,112.146744 153.725571,111.632080 153.990509,111.117424 
	C157.068085,110.841553 160.145676,110.565674 163.696289,110.571724 
	C165.147751,111.217003 166.126144,111.580353 167.104553,111.943710 
	C167.104553,111.943710 167.025879,111.972916 167.053024,112.273216 
	C167.513382,113.023308 167.946594,113.473099 168.379807,113.922890 
	C168.587372,114.441566 168.794952,114.960251 168.671051,116.037895 
	C168.515213,119.049690 168.690826,121.502518 168.866455,123.955345 
	C168.917938,128.345139 168.969452,132.734940 168.689789,137.836578 
	C168.529968,140.350891 168.701309,142.153351 168.872635,143.955795 
z"/>
<path fill="#8047DA" opacity="1.000000" stroke="none" 
	d="
M301.883667,167.961319 
	C298.224945,172.788330 293.301910,170.986160 288.315186,169.807434 
	C288.001251,165.388550 288.000122,161.651657 287.998718,157.914780 
	C287.992920,142.636642 287.987091,127.358498 288.387512,112.001595 
	C292.924500,111.909279 297.055267,111.895721 301.186005,111.882156 
	C301.186005,111.882164 301.081635,111.904449 301.058350,112.214584 
	C301.650238,113.671288 302.265411,114.817871 302.880554,115.964447 
	C302.929535,116.737106 302.978546,117.509758 302.663696,118.910194 
	C301.874634,120.938667 301.093018,122.336197 301.080505,123.740570 
	C300.978912,135.160294 300.975983,146.581787 301.099121,158.001068 
	C301.109863,158.998383 302.236908,159.983673 302.845398,160.974564 
	C302.895996,161.431839 302.946564,161.889099 302.584412,162.750458 
	C302.075684,164.756790 301.979675,166.359055 301.883667,167.961319 
z"/>
<path fill="#0D0917" opacity="1.000000" stroke="none" 
	d="
M258.865265,131.090088 
	C258.624908,131.243164 258.414917,131.430313 257.646118,131.809601 
	C236.706116,131.973816 216.355286,131.979996 196.004456,131.986191 
	C196.004456,131.986191 196.083023,132.001480 195.933075,131.524658 
	C195.828323,123.033363 195.873520,115.018883 195.918732,107.004395 
	C196.610474,110.039024 197.511978,113.045296 197.927444,116.117287 
	C198.258331,118.563950 197.989426,121.090851 197.998367,123.582092 
	C198.016617,128.671432 200.161087,130.273544 205.263672,130.022903 
	C211.473679,129.717911 217.713364,130.081024 223.935074,129.935654 
	C233.859085,129.703812 243.784897,129.388535 253.689743,128.780045 
	C254.537308,128.727982 255.854172,126.236115 255.896591,124.845428 
	C256.119293,117.544456 255.675827,110.211426 256.160187,102.935898 
	C256.358795,99.952988 258.305298,97.086449 259.834900,94.165222 
	C260.171875,94.453278 260.082123,94.727180 259.617065,95.534538 
	C259.148621,107.752632 259.006958,119.421364 258.865265,131.090088 
z"/>
<path fill="#8A4DE6" opacity="1.000000" stroke="none" 
	d="
M179.746948,94.941551 
	C179.950806,123.329857 179.981979,151.780502 179.973633,180.231155 
	C179.973297,181.353745 179.596146,182.476242 178.888184,183.841034 
	C178.381821,184.083267 178.056335,183.976425 178.056335,183.976425 
	C178.062515,155.306488 178.068680,126.636543 178.312531,97.324356 
	C178.765152,96.148438 178.980103,95.614761 179.195038,95.081085 
	C179.195053,95.081085 179.567337,95.003891 179.746948,94.941551 
z"/>
<path fill="#030502" opacity="1.000000" stroke="none" 
	d="
M275.891815,169.031662 
	C275.945801,166.636765 275.999786,164.241867 276.023560,160.973846 
	C275.959473,158.080383 275.925568,156.060043 275.891663,154.039688 
	C275.945618,148.322922 275.999573,142.606140 276.022461,136.034698 
	C275.958160,134.133240 275.924866,133.086426 275.891602,132.039627 
	C275.944885,130.625076 275.998169,129.210526 276.020752,126.914017 
	C275.954315,117.035583 275.918640,108.039116 275.882935,99.042648 
	C275.942596,98.873116 276.002289,98.703575 276.127686,98.272583 
	C276.795349,99.182343 277.918213,100.351570 277.922699,101.525063 
	C278.022400,127.587914 278.010925,153.651260 277.952454,179.714355 
	C277.950165,180.738480 277.275024,181.761078 276.469055,182.444641 
	C275.980804,179.416443 275.936890,176.727966 275.892944,174.039505 
	C275.946686,172.950684 276.000397,171.861862 276.015320,170.136505 
	C275.976501,169.499985 275.891815,169.031662 275.891815,169.031662 
z"/>
<path fill="#7F48CE" opacity="1.000000" stroke="none" 
	d="
M287.981262,112.080353 
	C287.987091,127.358498 287.992920,142.636642 287.998718,157.914780 
	C288.000122,161.651657 288.001251,165.388550 288.011536,169.531311 
	C287.060516,167.633926 285.305481,165.343048 285.269348,163.025375 
	C285.033844,147.916000 285.088074,132.799744 285.280792,117.688690 
	C285.308136,115.546143 286.602600,113.419746 287.650879,111.419777 
	C287.987885,111.729240 287.984589,111.904793 287.981262,112.080353 
z"/>
<path fill="#894CE3" opacity="1.000000" stroke="none" 
	d="
M152.318298,113.010902 
	C152.753448,131.251755 152.871704,149.717010 152.972168,168.659958 
	C152.315735,167.347473 151.138916,165.562057 151.122971,163.766342 
	C150.986008,148.350647 151.034515,132.932983 151.109604,117.516312 
	C151.116562,116.087891 151.690674,114.662239 152.318298,113.010902 
z"/>
<path fill="#9553F4" opacity="1.000000" stroke="none" 
	d="
M302.897522,160.510162 
	C302.236908,159.983673 301.109863,158.998383 301.099121,158.001068 
	C300.975983,146.581787 300.978912,135.160294 301.080505,123.740570 
	C301.093018,122.336197 301.874634,120.938667 302.587891,119.291672 
	C302.900513,132.712158 302.925049,146.378967 302.897522,160.510162 
z"/>
<path fill="#7F48CE" opacity="1.000000" stroke="none" 
	d="
M195.848343,106.592056 
	C195.873520,115.018883 195.828323,123.033363 195.946823,131.487091 
	C195.393814,130.465363 194.102325,129.023758 194.052429,127.540375 
	C193.692413,116.837448 193.583771,106.126068 193.623520,95.020599 
	C194.491241,95.874611 195.130920,97.125381 195.791229,99.057381 
	C195.859741,100.496025 195.907639,101.253441 195.955505,102.010864 
	C195.896332,103.400482 195.837158,104.790108 195.848343,106.592056 
z"/>
<path fill="#9D56FB" opacity="1.000000" stroke="none" 
	d="
M258.328430,149.402740 
	C258.745056,149.967453 259.901642,150.962845 259.906494,151.963821 
	C259.958588,162.725952 259.829041,173.488968 259.502075,184.571991 
	C259.003448,178.986343 258.651672,173.082535 258.528961,167.173950 
	C258.408966,161.397171 258.522583,155.615540 258.328430,149.402740 
z"/>
<path fill="#A057FF" opacity="1.000000" stroke="none" 
	d="
M194.538467,185.210587 
	C194.180756,174.071732 194.074112,162.889114 194.068298,151.706436 
	C194.067886,150.891739 194.798813,150.076630 195.567535,149.124542 
	C195.813522,160.043411 195.681717,171.099472 195.310944,182.755295 
	C194.959045,183.592239 194.949860,183.833389 195.044449,184.078491 
	C194.967728,184.441269 194.891006,184.804031 194.538467,185.210587 
z"/>
<path fill="#A057FF" opacity="1.000000" stroke="none" 
	d="
M196.466614,148.976532 
	C197.222672,148.643295 198.446579,148.033218 199.672302,148.029495 
	C218.269745,147.973007 236.867432,147.992386 255.465042,148.015503 
	C256.111298,148.016312 256.757324,148.239960 257.703552,148.649475 
	C237.647522,148.953369 217.291397,148.967529 196.466614,148.976532 
z"/>
<path fill="#0D0917" opacity="1.000000" stroke="none" 
	d="
M274.010681,95.063324 
	C269.691040,94.725616 265.371368,94.387909 260.609009,94.131462 
	C261.470215,89.037476 265.866547,90.125122 269.167847,90.431137 
	C271.188599,90.618454 273.010681,92.948799 274.708374,94.615326 
	C274.333405,94.963722 274.172028,95.013527 274.010681,95.063324 
z"/>
<path fill="#0D0917" opacity="1.000000" stroke="none" 
	d="
M190.997650,93.121429 
	C188.284790,93.413162 185.571945,93.704903 182.119843,93.823418 
	C180.939758,93.811722 180.498917,93.973251 180.058075,94.134781 
	C182.654007,90.009323 188.708740,89.003883 191.694427,92.578903 
	C191.331314,93.032440 191.164474,93.076935 190.997650,93.121429 
z"/>
<path fill="#9854F3" opacity="1.000000" stroke="none" 
	d="
M154.157288,170.491440 
	C158.008575,169.766251 162.109009,169.388092 166.626923,169.014908 
	C163.289505,172.807083 158.658768,170.507935 154.157288,170.491440 
z"/>
<path fill="#9553F4" opacity="1.000000" stroke="none" 
	d="
M288.387512,112.001595 
	C287.984589,111.904793 287.987885,111.729240 288.000732,111.290466 
	C292.267334,111.078499 296.524445,111.129745 300.983765,111.531570 
	C297.055267,111.895721 292.924500,111.909279 288.387512,112.001595 
z"/>
<path fill="#9D56FB" opacity="1.000000" stroke="none" 
	d="
M275.612701,174.323990 
	C275.936890,176.727966 275.980804,179.416443 276.084717,182.549927 
	C275.666412,183.963898 275.188080,184.932846 274.421631,186.053452 
	C274.533173,182.339569 274.932800,178.474030 275.612701,174.323990 
z"/>
<path fill="#0D0917" opacity="1.000000" stroke="none" 
	d="
M177.808456,184.163971 
	C178.056335,183.976425 178.381821,184.083267 178.549866,184.115814 
	C179.748840,185.193512 180.779770,186.238663 181.930420,187.574844 
	C179.258713,188.465912 178.512863,187.882065 177.808456,184.163971 
z"/>
<path fill="#9D56FB" opacity="1.000000" stroke="none" 
	d="
M262.522308,187.865143 
	C265.455353,187.503479 268.820465,187.264557 272.643127,187.035889 
	C269.718536,187.360062 266.336487,187.673981 262.522308,187.865143 
z"/>
<path fill="#9854F3" opacity="1.000000" stroke="none" 
	d="
M168.917694,123.518692 
	C168.690826,121.502518 168.515213,119.049690 168.604340,116.324127 
	C168.902359,118.394943 168.935638,120.738487 168.917694,123.518692 
z"/>
<path fill="#9553F4" opacity="1.000000" stroke="none" 
	d="
M302.073669,167.641708 
	C301.979675,166.359055 302.075684,164.756790 302.510803,163.089615 
	C302.654449,164.457169 302.459045,165.889633 302.073669,167.641708 
z"/>
<path fill="#9854F3" opacity="1.000000" stroke="none" 
	d="
M167.309906,168.849503 
	C167.391968,167.425140 167.762314,165.801788 168.491730,164.102264 
	C168.433273,165.567551 168.015717,167.109024 167.309906,168.849503 
z"/>
<path fill="#9553F4" opacity="1.000000" stroke="none" 
	d="
M302.919495,115.624039 
	C302.265411,114.817871 301.650238,113.671288 301.085510,112.168625 
	C301.743408,112.969574 302.350922,114.126602 302.919495,115.624039 
z"/>
<path fill="#9854F3" opacity="1.000000" stroke="none" 
	d="
M168.923355,143.536255 
	C168.701309,142.153351 168.529968,140.350891 168.614929,138.299622 
	C168.905533,139.739441 168.939804,141.428070 168.923355,143.536255 
z"/>
<path fill="#9854F3" opacity="1.000000" stroke="none" 
	d="
M166.966522,111.658478 
	C166.126144,111.580353 165.147751,111.217003 164.103577,110.520370 
	C164.968048,110.582474 165.898285,110.977867 166.966522,111.658478 
z"/>
<path fill="#7F48CE" opacity="1.000000" stroke="none" 
	d="
M191.074036,93.462906 
	C191.164474,93.076935 191.331314,93.032440 191.753296,92.943314 
	C192.371674,93.187820 192.734909,93.476967 193.240509,93.944870 
	C192.638702,94.017220 191.894577,93.910797 191.074036,93.462906 
z"/>
<path fill="#0D0917" opacity="1.000000" stroke="none" 
	d="
M178.885895,95.088181 
	C178.980103,95.614761 178.765152,96.148438 178.320801,96.857864 
	C178.253174,96.387505 178.414963,95.741386 178.885895,95.088181 
z"/>
<path fill="#A057FF" opacity="1.000000" stroke="none" 
	d="
M192.382050,186.902496 
	C192.591965,186.314743 193.140182,185.769699 193.992737,185.215759 
	C193.771484,185.786301 193.245911,186.365753 192.382050,186.902496 
z"/>
<path fill="#0D0917" opacity="1.000000" stroke="none" 
	d="
M196.208984,101.827057 
	C195.907639,101.253441 195.859741,100.496025 195.892517,99.365723 
	C196.136261,99.876320 196.299362,100.759789 196.208984,101.827057 
z"/>
<path fill="#9854F3" opacity="1.000000" stroke="none" 
	d="
M168.289978,113.619904 
	C167.946594,113.473099 167.513382,113.023308 167.066422,112.233452 
	C167.435165,112.367889 167.817657,112.842400 168.289978,113.619904 
z"/>
<path fill="#894CE3" opacity="1.000000" stroke="none" 
	d="
M153.712769,111.169884 
	C153.725571,111.632080 153.460632,112.146744 152.882172,112.642624 
	C152.857437,112.156685 153.146240,111.689514 153.712769,111.169884 
z"/>
<path fill="#8A4DE6" opacity="1.000000" stroke="none" 
	d="
M180.015289,94.333801 
	C180.498917,93.973251 180.939758,93.811722 181.697235,93.805817 
	C181.515182,94.291023 181.016510,94.620605 180.200073,94.940002 
	C179.882294,94.929810 179.972519,94.532822 180.015289,94.333801 
z"/>
<path fill="#9D56FB" opacity="1.000000" stroke="none" 
	d="
M274.055420,95.392555 
	C274.172028,95.013527 274.333405,94.963722 274.740356,94.975906 
	C275.032776,95.229393 275.079590,95.420898 275.326752,96.022659 
	C275.527100,96.432930 275.583221,96.795410 275.583221,96.795410 
	C275.088867,96.437531 274.594482,96.079659 274.055420,95.392555 
z"/>
<path fill="#0D0917" opacity="1.000000" stroke="none" 
	d="
M275.698547,96.794495 
	C275.583221,96.795410 275.527100,96.432930 275.515930,96.249954 
	C275.696259,96.174026 275.840088,96.326149 275.989502,96.672661 
	C276.042755,96.821999 275.813873,96.793579 275.698547,96.794495 
z"/>
<path fill="#9D56FB" opacity="1.000000" stroke="none" 
	d="
M273.298462,187.032928 
	C273.231842,186.811890 273.439362,186.517883 273.911865,186.138397 
	C273.975464,186.355270 273.774017,186.657623 273.298462,187.032928 
z"/>
<path fill="#7F46D9" opacity="1.000000" stroke="none" 
	d="
M195.203308,183.944962 
	C194.949860,183.833389 194.959045,183.592239 195.188980,183.211914 
	C195.564316,183.298141 195.583038,183.545700 195.203308,183.944962 
z"/>
<path fill="#A85DFF" opacity="1.000000" stroke="none" 
	d="
M196.288437,132.294022 
	C216.355286,131.979996 236.706116,131.973816 257.524292,131.982574 
	C256.770996,132.330078 255.551285,132.948334 254.329575,132.952332 
	C235.720810,133.013229 217.111786,132.997711 198.502838,132.976654 
	C197.859238,132.975922 197.215881,132.732285 196.288437,132.294022 
z"/>
<path fill="#A057FF" opacity="1.000000" stroke="none" 
	d="
M259.190125,130.808319 
	C259.006958,119.421364 259.148621,107.752632 259.622284,95.751617 
	C259.807861,107.121735 259.661438,118.824150 259.190125,130.808319 
z"/>
<path fill="#9D56FB" opacity="1.000000" stroke="none" 
	d="
M275.601074,99.344391 
	C275.918640,108.039116 275.954315,117.035583 275.940308,126.495712 
	C275.588104,122.610062 275.113586,118.264069 275.029419,113.910530 
	C274.937531,109.159378 275.207184,104.401222 275.601074,99.344391 
z"/>
<path fill="#9D56FB" opacity="1.000000" stroke="none" 
	d="
M275.622620,154.297546 
	C275.925568,156.060043 275.959473,158.080383 275.943390,160.531281 
	C275.713440,158.826355 275.533478,156.690872 275.622620,154.297546 
z"/>
<path fill="#9D56FB" opacity="1.000000" stroke="none" 
	d="
M275.640320,132.244965 
	C275.924866,133.086426 275.958160,134.133240 275.941681,135.570282 
	C275.724304,134.790451 275.556671,133.620377 275.640320,132.244965 
z"/>
<path fill="#9D56FB" opacity="1.000000" stroke="none" 
	d="
M275.728302,169.109161 
	C275.891815,169.031662 275.976501,169.499985 275.934326,169.734192 
	C275.783020,169.707825 275.673889,169.447250 275.728302,169.109161 
z"/>
</svg>